<?xml version="1.0" encoding="UTF-8"?>
<svg version="1.1" xmlns="http://www.w3.org/2000/svg" width="1536" height="1024">
<path d="M0 0 C506.88 0 1013.76 0 1536 0 C1536 337.92 1536 675.84 1536 1024 C1029.12 1024 522.24 1024 0 1024 C0 686.08 0 348.16 0 0 Z " fill="#FAFAFA" transform="translate(0,0)"/>
<path d="M0 0 C0.86716141 -0.00511093 1.73432281 -0.01022186 2.62776184 -0.01548767 C5.49434311 -0.02938682 8.36068396 -0.02842633 11.22729492 -0.02612305 C13.22263173 -0.03001046 15.21796771 -0.03434522 17.21330261 -0.03910828 C21.39711182 -0.04657167 25.58083666 -0.04627881 29.76464844 -0.04101562 C35.11788835 -0.0352279 40.47078151 -0.05213464 45.82396412 -0.0753603 C49.946162 -0.0901174 54.06827682 -0.09096652 58.19049644 -0.08785057 C60.16359836 -0.08836302 62.13670501 -0.09358639 64.10978127 -0.10366249 C66.87419531 -0.11604463 69.63793985 -0.109224 72.40234375 -0.09765625 C73.21245911 -0.10529999 74.02257446 -0.11294373 74.85723877 -0.12081909 C80.65041994 -0.06743013 85.63418911 0.8416934 90.13745117 4.80981445 C93.76668706 9.7030256 94.51970885 11.83425025 94.50878906 17.92749023 C94.50893509 18.61053223 94.50908112 19.29357422 94.50923157 19.99731445 C94.5085339 22.25906531 94.50074832 24.5207342 94.49291992 26.7824707 C94.49105522 28.34902908 94.48963157 29.91558805 94.4886322 31.48214722 C94.4848111 35.60855718 94.47498427 39.73493204 94.46392822 43.86132812 C94.45370537 48.07071457 94.44913271 52.28010668 94.4440918 56.48950195 C94.43336165 64.75123683 94.41629009 73.01294315 94.39526367 81.2746582 C95.20435181 81.26577576 96.01343994 81.25689331 96.8470459 81.2477417 C104.49691533 81.16737071 112.1465781 81.10658017 119.79676056 81.06740952 C123.72919322 81.04659394 127.66127506 81.01838813 131.59350586 80.97290039 C135.39311641 80.9292252 139.19239094 80.90547581 142.99223328 80.89514923 C144.43704004 80.88779646 145.88182981 80.87343852 147.32649231 80.85173798 C155.25026343 80.73751954 161.61200228 80.76008075 168.39526367 85.2746582 C174.01390705 91.04116062 174.69419078 96.47121881 174.68579102 104.16064453 C174.69250824 105.04585281 174.69922546 105.9310611 174.70614624 106.84309387 C174.72511626 109.76434979 174.72905005 112.6853758 174.73120117 115.60668945 C174.73763017 117.64304193 174.7443586 119.67939348 174.75137329 121.71574402 C174.76334384 125.98353211 174.76705438 130.25123927 174.76586914 134.51904297 C174.76566605 139.9764891 174.79295881 145.4334139 174.82741356 150.89073658 C174.84969819 155.09704451 174.85370618 159.30322733 174.85264969 163.50958824 C174.85500364 165.52095014 174.86381556 167.53231559 174.87931442 169.54361916 C174.8990043 172.36294215 174.8931244 175.18114561 174.88110352 178.00048828 C174.89234253 178.82413879 174.90358154 179.64778931 174.91516113 180.49639893 C174.85383155 186.18322714 173.581814 190.52174017 170.39526367 195.2746582 C165.75323428 199.58511406 163.181151 200.39972442 156.92602539 200.38818359 C155.93072311 200.38840263 155.93072311 200.38840263 154.91531372 200.3886261 C152.71849314 200.38792851 150.52175697 200.38014334 148.32495117 200.37231445 C146.8032333 200.37044973 145.28151483 200.36902608 143.75979614 200.36802673 C139.7517532 200.36420587 135.74374641 200.35437925 131.73571777 200.34332275 C127.64697763 200.33309939 123.55823166 200.32852713 119.46948242 200.32348633 C111.44472624 200.31275661 103.41999945 200.29568534 95.39526367 200.2746582 C95.40525642 201.53253647 95.40525642 201.53253647 95.41545105 202.81582642 C95.47564295 210.73121194 95.5212791 218.64652023 95.55070019 226.56208229 C95.56633455 230.63125015 95.58753176 234.70022837 95.62158203 238.76928711 C95.6542555 242.69854971 95.67213346 246.62763028 95.6798954 250.55701828 C95.68542462 252.05369302 95.69622191 253.55035817 95.71245384 255.04695511 C95.7343351 257.14862597 95.73722625 259.24955132 95.73583984 261.35131836 C95.7458326 263.1433519 95.7458326 263.1433519 95.75602722 264.97158813 C95.28234965 269.30847363 93.84095761 272.65162581 90.93041992 275.91918945 C85.24138115 280.43118572 80.79520012 280.43092229 73.71459961 280.4675293 C72.83929092 280.47570679 71.96398224 280.48388428 71.06214905 280.49230957 C68.16798579 280.51710352 65.27387139 280.53366416 62.37963867 280.5480957 C61.38932899 280.55341938 60.39901932 280.55874306 59.37870026 280.56422806 C54.1369962 280.59093345 48.89531575 280.61031679 43.65356445 280.62475586 C39.32164391 280.63809461 34.99019446 280.66595008 30.65844727 280.70678711 C25.42126006 280.75615554 20.1845001 280.78088196 14.94709015 280.78798294 C12.95523666 280.79468626 10.96339236 280.8098843 8.97167206 280.83387375 C6.17844786 280.86559797 3.38686393 280.86555126 0.59350586 280.8581543 C-0.22236496 280.87455963 -1.03823578 280.89096497 -1.87882996 280.90786743 C-7.92382586 280.84263863 -11.87895333 279.02044991 -16.60473633 275.2746582 C-20.47957014 271.02484047 -20.72863732 267.30509432 -20.71826172 261.69189453 C-20.71840775 261.02821365 -20.71855377 260.36453278 -20.71870422 259.68074036 C-20.71800814 257.48935669 -20.71023002 255.29805826 -20.70239258 253.10668945 C-20.70052732 251.58640082 -20.69910392 250.06611159 -20.69810486 248.54582214 C-20.69428821 244.54601378 -20.68446518 240.54624177 -20.67340088 236.54644775 C-20.66316846 232.46431978 -20.65860331 228.38218593 -20.65356445 224.30004883 C-20.64284216 216.29156861 -20.62577594 208.28311793 -20.60473633 200.2746582 C-21.45584991 200.28354065 -22.3069635 200.2924231 -23.18386841 200.30157471 C-31.21695823 200.38182589 -39.24991282 200.442676 -47.28331184 200.48190689 C-51.41308868 200.50275426 -55.54253342 200.5310191 -59.67211914 200.57641602 C-63.65975062 200.61997654 -67.64706329 200.64381675 -71.6349144 200.65416718 C-73.15393973 200.66154034 -74.67294823 200.67593862 -76.19183731 200.69757843 C-78.32480394 200.72674996 -80.4564646 200.73060875 -82.58959961 200.72875977 C-83.80205353 200.73764221 -85.01450745 200.74652466 -86.26370239 200.75567627 C-91.42446543 200.01266668 -94.48539335 197.51501124 -97.91723633 193.7121582 C-101.08328263 189.13898022 -100.75890041 184.75388431 -100.76586914 179.40039062 C-100.77083405 178.49275467 -100.77579895 177.58511871 -100.78091431 176.64997864 C-100.79553498 173.64335373 -100.80233791 170.63678159 -100.80786133 167.63012695 C-100.81361301 165.54128518 -100.81937074 163.45244342 -100.82513428 161.36360168 C-100.8356441 156.98133091 -100.84148684 152.59907848 -100.8449707 148.21679688 C-100.85045433 142.60450638 -100.87447975 136.99245863 -100.90294266 131.38024426 C-100.9215769 127.06422724 -100.92677507 122.74826858 -100.92830658 118.43221474 C-100.93133202 116.36338283 -100.93935689 114.29455193 -100.95249176 112.22575951 C-100.96956792 109.32935559 -100.96766804 106.43354337 -100.96118164 103.53710938 C-100.97039642 102.68442474 -100.97961121 101.83174011 -100.98910522 100.95321655 C-100.94834811 95.1362626 -99.95303337 90.87358556 -95.92114258 86.41137695 C-95.34235352 85.93313477 -94.76356445 85.45489258 -94.16723633 84.9621582 C-93.30291992 84.22545898 -93.30291992 84.22545898 -92.42114258 83.47387695 C-88.60017523 80.95121679 -84.6567948 81.15246429 -80.18383789 81.16113281 C-78.88279114 81.16120834 -77.58174438 81.16128387 -76.24127197 81.16136169 C-74.82596803 81.16646797 -73.41066449 81.17168396 -71.99536133 81.17700195 C-70.5437627 81.17886785 -69.09216345 81.18029094 -67.64056396 81.18128967 C-63.82654064 81.18510133 -60.0125556 81.19492005 -56.19854736 81.20599365 C-52.30400104 81.21623685 -48.4094485 81.22079352 -44.51489258 81.22583008 C-36.8781564 81.23654355 -29.24145174 81.25360372 -21.60473633 81.2746582 C-21.61361877 80.45304199 -21.62250122 79.63142578 -21.63165283 78.78491211 C-21.71201748 71.01731296 -21.77281121 63.24991725 -21.81198502 55.48200989 C-21.83280225 51.48904592 -21.86101122 47.49642734 -21.90649414 43.50366211 C-21.95016322 39.64569739 -21.97391748 35.78806353 -21.9842453 31.92987061 C-21.99159914 30.46273597 -22.00595921 28.99561811 -22.02765656 27.52862549 C-22.14080201 19.55693323 -22.16946795 13.09143561 -17.60473633 6.2746582 C-15.10473633 3.8996582 -15.10473633 3.8996582 -12.60473633 2.2746582 C-12.07064651 1.9168074 -11.5365567 1.5589566 -10.98628235 1.19026184 C-7.39048532 -0.19216991 -3.79934354 -0.01153234 0 0 Z " fill="#0150AF" transform="translate(381.604736328125,352.725341796875)"/>
<path d="M0 0 C7.59 0 15.18 0 23 0 C30.78223998 17.2843794 38.49681164 34.5920882 46 52 C48.48099934 49.51900066 49.3449368 47.17837943 50.72265625 43.9453125 C50.98435608 43.33558594 51.24605591 42.72585938 51.51568604 42.09765625 C52.07732715 40.78800281 52.63685727 39.47744246 53.19448853 38.16607666 C54.64619665 34.75247252 56.11290206 31.34531965 57.578125 27.9375 C58.01461113 26.92068649 58.01461113 26.92068649 58.45991516 25.8833313 C62.19174399 17.2032808 66.0953233 8.60352492 70 0 C77.26 0 84.52 0 92 0 C92 29.04 92 58.08 92 88 C86.39 88 80.78 88 75 88 C74.67 69.19 74.34 50.38 74 31 C68.91246176 42.48638023 68.91246176 42.48638023 63.82910156 53.97460938 C63.183092 55.43105581 62.5369422 56.88744005 61.890625 58.34375 C61.56562012 59.08012695 61.24061523 59.81650391 60.90576172 60.57519531 C58.73670074 65.45639065 56.41891855 70.23745997 54 75 C48.72 75 43.44 75 38 75 C35.63270651 69.85934025 33.26661668 64.71812884 30.90161133 59.57641602 C30.09790075 57.82952126 29.29386892 56.08277426 28.48950195 54.33618164 C27.32938269 51.81696291 26.17044276 49.29720448 25.01171875 46.77734375 C24.65534836 46.00414291 24.29897797 45.23094208 23.93180847 44.43431091 C23.42161919 43.32395226 23.42161919 43.32395226 22.90112305 42.19116211 C22.60578171 41.54940536 22.31044037 40.90764862 22.00614929 40.2464447 C20.63312755 37.18087835 19.3231752 34.08740881 18 31 C17.67 49.81 17.34 68.62 17 88 C11.39 88 5.78 88 0 88 C0 58.96 0 29.92 0 0 Z " fill="#0150AF" transform="translate(607,455)"/>
<path d="M0 0 C2.1519254 1.80982444 3.39100588 3.54939106 3.89453125 6.33203125 C4.01959208 10.59145603 3.92043948 13.40415024 1.1484375 16.78125 C-2.23457398 20.0031657 -3.68862488 20.43437168 -8.2265625 20.46875 C-9.06703125 20.48292969 -9.9075 20.49710937 -10.7734375 20.51171875 C-13.4765625 20.28125 -13.4765625 20.28125 -16.34765625 19.29296875 C-23.46653516 16.99110903 -32.46035158 16.99877505 -39.4140625 19.90625 C-40.79508525 20.6500777 -42.15094849 21.44264939 -43.4765625 22.28125 C-44.53810547 22.93480469 -44.53810547 22.93480469 -45.62109375 23.6015625 C-52.55645838 28.31091956 -56.20539437 34.27239398 -58.4765625 42.28125 C-59.52445553 51.88287455 -58.31504794 59.75347719 -52.78125 67.72265625 C-47.47106737 74.24751628 -41.37645792 77.64795153 -33.4765625 80.28125 C-25.97687451 80.78251449 -19.51492707 80.62747341 -12.5 77.90234375 C-8.77435563 76.75875793 -6.24126243 77.27733002 -2.4765625 78.28125 C1.60594161 81.66885979 3.33698638 83.70973338 3.9609375 88.96875 C3.86693704 93.28493767 2.52945506 95.65622455 -0.4296875 98.7421875 C-10.39092308 106.23212417 -24.79958268 106.45178317 -36.6328125 104.85546875 C-52.12787887 101.46071631 -65.58213477 93.02914159 -74.4140625 79.78125 C-82.39594682 66.20440848 -85.78237673 51.43949976 -82.2265625 35.8828125 C-79.60013105 26.77237842 -75.79734889 19.34254693 -69.4765625 12.28125 C-68.88101562 11.59289062 -68.28546875 10.90453125 -67.671875 10.1953125 C-51.23098255 -7.60996937 -20.88369946 -13.74623256 0 0 Z " fill="#F7F8F9" transform="translate(453.4765625,446.71875)"/>
<path d="M0 0 C5.28 0 10.56 0 16 0 C16 29.04 16 58.08 16 88 C10.72 88 5.44 88 0 88 C-0.33 86.02 -0.66 84.04 -1 82 C-1.886875 82.78375 -2.77375 83.5675 -3.6875 84.375 C-9.31548048 89.34856414 -15.16887233 89.50368108 -22.42578125 89.3671875 C-29.9993007 88.58914288 -35.12634896 85.24907837 -40.375 79.875 C-47.89648859 70.61778328 -49.20050202 60.67988427 -48 49 C-46.12421101 39.73829186 -41.30279845 32.9310676 -33.75 27.33203125 C-26.85647301 23.28435175 -19.82192443 22.97691833 -12 24 C-7.44036351 25.42965771 -4.39891116 27.60108884 -1 31 C-0.67 20.77 -0.34 10.54 0 0 Z " fill="#024FAE" transform="translate(825,455)"/>
<path d="M0 0 C6.9491355 4.7802283 11.91617293 10.77523453 14.609375 18.8203125 C16.53666633 29.5745981 15.60936186 41.13928161 9.3125 50.25 C4.3125739 56.37894167 -1.8501144 61.30076003 -9.92822266 62.21923828 C-21.11731056 62.85308327 -29.23246051 61.92568245 -38.25 54.875 C-44.33280019 49.25356988 -47.62892945 41.70729499 -48.2734375 33.53125 C-48.6571041 22.78190105 -47.34767649 13.3833347 -39.8125 5.0625 C-28.49786648 -5.08593226 -13.43703586 -7.05643155 0 0 Z " fill="#024DAE" transform="translate(985,482)"/>
<path d="M0 0 C0.69867187 0.4125 1.39734375 0.825 2.1171875 1.25 C9.16160436 5.92855611 14.56606237 12.81476997 16.4375 21.125 C16.623125 22.40375 16.80875 23.6825 17 25 C0.59454855 26.22657581 0.59454855 26.22657581 -3.1328125 23.359375 C-4.29362341 21.28375284 -5.13345458 19.21074759 -6 17 C-11.54646291 11.84971301 -16.28506086 11.58651509 -23.6328125 11.66015625 C-29.4150722 12.24374859 -33.41563515 14.50004908 -37.5546875 18.50390625 C-43.27672444 25.52948415 -44.6036803 35.07379686 -44.3515625 43.875 C-43.18076644 54.28207612 -40.1809006 61.81118675 -32.0625 68.375 C-26.63929024 71.22994963 -19.91615178 70.75395275 -14 70 C-7.53145403 67.34286076 -4.82192421 63.73288632 -1 58 C0.87939453 57.65942383 0.87939453 57.65942383 3.1328125 57.70703125 C3.93847656 57.71669922 4.74414062 57.72636719 5.57421875 57.73632812 C6.41597656 57.76146484 7.25773438 57.78660156 8.125 57.8125 C9.39923828 57.83280273 9.39923828 57.83280273 10.69921875 57.85351562 C12.79974837 57.88891781 14.89995293 57.94272599 17 58 C14.82203554 67.713926 10.47229326 75.37467168 2 81 C-9.06657652 86.85215572 -22.09406791 88.01742358 -34.328125 85.24609375 C-36.69628083 84.31989783 -38.81798218 83.30021268 -41 82 C-42.051875 81.401875 -43.10375 80.80375 -44.1875 80.1875 C-53.46658756 72.9704319 -59.90999266 63.83650574 -61.75 51.953125 C-63.09560648 36.05814844 -61.95832263 22.21092913 -52 9 C-39.85281306 -4.74105242 -16.24190222 -10.19099747 0 0 Z " fill="#024EAE" transform="translate(912,458)"/>
<path d="M0 0 C6.4104032 5.09699352 9.73892235 11.67053313 11.703125 19.52734375 C11.703125 23.48734375 11.703125 27.44734375 11.703125 31.52734375 C-3.146875 31.52734375 -17.996875 31.52734375 -33.296875 31.52734375 C-31.22340606 40.74674989 -31.22340606 40.74674989 -25.296875 45.52734375 C-21.59181099 47.37987575 -17.34032269 46.99246427 -13.296875 46.52734375 C-10.05747844 44.79195273 -7.87366366 43.10413241 -5.296875 40.52734375 C-2.55201907 40.3822668 0.08793043 40.34081952 2.828125 40.40234375 C3.58222656 40.41136719 4.33632812 40.42039062 5.11328125 40.4296875 C6.97669754 40.45327505 8.83995093 40.48914656 10.703125 40.52734375 C9.76385846 46.74593603 6.66006641 51.18765651 1.73828125 55.08203125 C-7.22504855 60.89701296 -16.8550063 61.80234027 -27.296875 60.52734375 C-36.10256337 57.88999649 -41.39712159 52.28037278 -46.18359375 44.6875 C-50.56565158 36.18477024 -50.52604817 25.82170032 -48.71484375 16.546875 C-46.10682028 9.05625052 -40.64342152 2.1588791 -33.8515625 -1.953125 C-22.37217352 -7.20030445 -10.81008183 -6.93095383 0 0 Z " fill="#044FAE" transform="translate(1192.296875,483.47265625)"/>
<path d="M0 0 C6.11649431 4.76504033 8.95358136 10.42705403 11.73828125 17.59765625 C11.73828125 22.21765625 11.73828125 26.83765625 11.73828125 31.59765625 C-2.78171875 31.92765625 -17.30171875 32.25765625 -32.26171875 32.59765625 C-30.09332902 40.57871045 -30.09332902 40.57871045 -25.26171875 45.59765625 C-21.57784168 47.43959479 -17.29165722 46.95996933 -13.26171875 46.59765625 C-10.46976192 45.35018618 -8.86882605 44.29682447 -6.88354492 42.01049805 C-4.85667187 40.24480267 -3.90174291 40.24487375 -1.25 40.3046875 C-0.49267578 40.31435547 0.26464844 40.32402344 1.04492188 40.33398438 C1.83060547 40.35912109 2.61628906 40.38425781 3.42578125 40.41015625 C4.62170898 40.43045898 4.62170898 40.43045898 5.84179688 40.45117188 C7.80758092 40.48648536 9.77301707 40.54029178 11.73828125 40.59765625 C7.9121207 49.97286836 3.18820466 55.43968995 -6.26171875 59.59765625 C-13.43784014 62.05223372 -24.30572721 61.89905151 -31.32421875 58.97265625 C-33.37890625 57.83984375 -33.37890625 57.83984375 -35.26171875 56.59765625 C-35.88304687 56.20835937 -36.504375 55.8190625 -37.14453125 55.41796875 C-43.53075831 50.74579397 -47.89272718 42.34524591 -49.26171875 34.59765625 C-50.22249926 23.11554164 -48.28378668 13.35541555 -40.88671875 4.3125 C-29.71783978 -7.4738891 -13.56378361 -8.41001436 0 0 Z " fill="#044EAE" transform="translate(757.26171875,483.40234375)"/>
<path d="M0 0 C6.68344852 3.96986792 10.39678635 9.56835847 12.390625 17.046875 C12.77114558 20.66961203 12.74199432 24.25129153 12.68359375 27.890625 C12.67934891 28.90032349 12.67510406 29.91002197 12.67073059 30.95031738 C12.65404714 34.14945057 12.61641403 37.34793483 12.578125 40.546875 C12.56306482 42.72655335 12.54937875 44.90624165 12.53710938 47.0859375 C12.50417745 52.40649693 12.45246681 57.72657625 12.390625 63.046875 C7.110625 63.046875 1.830625 63.046875 -3.609375 63.046875 C-3.62395752 61.80075439 -3.63854004 60.55463379 -3.65356445 59.27075195 C-3.711618 54.63927788 -3.78885076 50.00828638 -3.87182617 45.37719727 C-3.90504227 43.37434736 -3.93308452 41.3714046 -3.95581055 39.3684082 C-3.98941734 36.48608906 -4.04173648 33.60461832 -4.09765625 30.72265625 C-4.10404617 29.82976395 -4.1104361 28.93687164 -4.11701965 28.016922 C-4.22953179 23.23946392 -4.45865868 19.89176182 -7.609375 16.046875 C-11.65423157 13.35030396 -14.86244696 13.5046073 -19.609375 14.046875 C-23.50794453 15.70584076 -25.0182019 17.18962769 -26.609375 21.046875 C-26.93106386 23.14251436 -26.93106386 23.14251436 -26.92822266 25.35644531 C-26.94809235 26.19701477 -26.96796204 27.03758423 -26.98843384 27.90362549 C-27.00576065 29.25070587 -27.00576065 29.25070587 -27.0234375 30.625 C-27.04280365 31.5515741 -27.0621698 32.47814819 -27.0821228 33.43280029 C-27.14182267 36.38739871 -27.18826568 39.34203629 -27.234375 42.296875 C-27.2725636 44.30210017 -27.31161585 46.30730909 -27.3515625 48.3125 C-27.4475164 53.22382611 -27.53158303 58.135229 -27.609375 63.046875 C-33.219375 63.046875 -38.829375 63.046875 -44.609375 63.046875 C-44.609375 42.256875 -44.609375 21.466875 -44.609375 0.046875 C-39.329375 0.046875 -34.049375 0.046875 -28.609375 0.046875 C-28.609375 2.356875 -28.609375 4.666875 -28.609375 7.046875 C-27.949375 7.046875 -27.289375 7.046875 -26.609375 7.046875 C-26.42375 6.469375 -26.238125 5.891875 -26.046875 5.296875 C-20.75655779 -2.9836215 -8.45400237 -3.08798889 0 0 Z " fill="#0250AF" transform="translate(1053.609375,479.953125)"/>
<path d="M0 0 C5.50951562 4.76100682 8.39067579 10.60310585 8.92874146 17.88018799 C8.98426286 20.60330024 8.97886856 23.31945333 8.94921875 26.04296875 C8.94638885 27.03188614 8.94355896 28.02080353 8.94064331 29.03968811 C8.92950767 32.17762695 8.90441528 35.31527339 8.87890625 38.453125 C8.8688679 40.58918857 8.85974355 42.72525664 8.8515625 44.86132812 C8.82959 50.0795386 8.79510589 55.29753234 8.75390625 60.515625 C3.47390625 60.515625 -1.80609375 60.515625 -7.24609375 60.515625 C-7.26067627 59.30503418 -7.27525879 58.09444336 -7.2902832 56.84716797 C-7.3484106 52.34052519 -7.42564265 47.83437451 -7.50854492 43.328125 C-7.5417264 41.38061532 -7.56977932 39.43301103 -7.5925293 37.48535156 C-7.62620009 34.67992985 -7.67852202 31.87536972 -7.734375 29.0703125 C-7.74076492 28.20445526 -7.74715485 27.33859802 -7.7537384 26.44650269 C-7.87481063 21.42848845 -8.4165775 17.83605138 -11.24609375 13.515625 C-15.28923751 10.82019583 -18.49718086 10.85110135 -23.24609375 11.515625 C-27.34504292 13.60236276 -29.53078737 15.28011569 -31.24609375 19.515625 C-31.56743425 21.57056162 -31.56743425 21.57056162 -31.56494141 23.73339844 C-31.5848111 24.55394714 -31.60468079 25.37449585 -31.62515259 26.21990967 C-31.6424794 27.53417938 -31.6424794 27.53417938 -31.66015625 28.875 C-31.6795224 29.77937805 -31.69888855 30.6837561 -31.71884155 31.61553955 C-31.77853206 34.49880599 -31.82498061 37.38211258 -31.87109375 40.265625 C-31.90928322 42.22267348 -31.94833552 44.17970533 -31.98828125 46.13671875 C-32.084225 50.92955211 -32.16829502 55.72246415 -32.24609375 60.515625 C-37.52609375 60.515625 -42.80609375 60.515625 -48.24609375 60.515625 C-48.24609375 39.725625 -48.24609375 18.935625 -48.24609375 -2.484375 C-42.96609375 -2.484375 -37.68609375 -2.484375 -32.24609375 -2.484375 C-31.91609375 -0.504375 -31.58609375 1.475625 -31.24609375 3.515625 C-30.83359375 3.10570312 -30.42109375 2.69578125 -29.99609375 2.2734375 C-21.37724252 -5.76825851 -9.90091306 -6.96064191 0 0 Z " fill="#004FAE" transform="translate(1125.24609375,482.484375)"/>
<path d="M0 0 C6.25634773 4.03213286 9.20345191 10.05847532 11.8046875 16.88671875 C11.8046875 17.87671875 11.8046875 18.86671875 11.8046875 19.88671875 C6.1946875 19.88671875 0.5846875 19.88671875 -5.1953125 19.88671875 C-6.5153125 17.57671875 -7.8353125 15.26671875 -9.1953125 12.88671875 C-13.05130487 10.48975052 -16.73406738 10.42521063 -21.1953125 10.88671875 C-25.95367994 12.69803146 -29.08299211 15.19267343 -31.1953125 19.88671875 C-33.45617513 27.48130661 -32.83862541 35.83050007 -29.1953125 42.88671875 C-25.64823251 46.43379874 -22.90324737 47.757818 -17.8828125 48.13671875 C-13.80248356 47.86008628 -11.59804997 47.12943209 -8.1953125 44.88671875 C-7.82277344 44.03078125 -7.45023438 43.17484375 -7.06640625 42.29296875 C-5.1953125 39.88671875 -5.1953125 39.88671875 -3.36474609 39.48120117 C-1.06104423 39.39378737 1.19018348 39.45147038 3.4921875 39.57421875 C4.68811523 39.60805664 4.68811523 39.60805664 5.90820312 39.64257812 C7.87450084 39.70144931 9.83983241 39.7911312 11.8046875 39.88671875 C10.91998322 47.20374352 7.28998768 51.85951537 1.8671875 56.69921875 C-6.76426557 62.86454237 -15.91014342 63.3001576 -26.1953125 61.88671875 C-33.73608518 59.59770056 -40.04492003 55.68453764 -44.1953125 48.88671875 C-49.29562647 39.29680803 -50.85997457 29.33275416 -48.0703125 18.69921875 C-45.15495753 10.10300852 -38.80744762 2.66688415 -30.65625 -1.37109375 C-20.0596076 -5.63960041 -10.20893 -5.17712642 0 0 Z " fill="#024EAE" transform="translate(1260.1953125,482.11328125)"/>
<path d="M0 0 C5.28 0 10.56 0 16 0 C16 5.28 16 10.56 16 16 C20.62 16 25.24 16 30 16 C30 19.96 30 23.92 30 28 C25.38 28 20.76 28 16 28 C16.12016818 32.32349782 16.2429404 36.64676103 16.37231445 40.9699707 C16.41550705 42.43932768 16.45719256 43.9087298 16.49731445 45.37817383 C16.55539882 47.49574355 16.61898098 49.61308937 16.68359375 51.73046875 C16.72025146 53.00301514 16.75690918 54.27556152 16.79467773 55.58666992 C16.93925819 59.28945397 16.93925819 59.28945397 18 64 C22.29 64.66 26.58 65.32 31 66 C31 70.29 31 74.58 31 79 C12.84361086 79.7932403 12.84361086 79.7932403 7 75 C2.14408425 70.53305941 0.16408884 65.74787051 -0.22705078 59.19775391 C-0.22673831 57.79065037 -0.21568934 56.38351852 -0.1953125 54.9765625 C-0.19106766 53.85729874 -0.19106766 53.85729874 -0.18673706 52.71542358 C-0.17561687 50.35178012 -0.15052821 47.98852732 -0.125 45.625 C-0.11495962 44.01432842 -0.10583562 42.40365085 -0.09765625 40.79296875 C-0.0757044 36.86183056 -0.04123185 32.93098133 0 29 C-2.64 29 -5.28 29 -8 29 C-8 24.71 -8 20.42 -8 16 C-5.36 16 -2.72 16 0 16 C0 10.72 0 5.44 0 0 Z " fill="#044FAF" transform="translate(1283,464)"/>
<path d="M0 0 C4.74424521 2.63569178 7.61931493 5.6079448 9.375 10.875 C9.54931213 13.49539714 9.65184435 16.06562084 9.6875 18.6875 C9.71650391 19.38681641 9.74550781 20.08613281 9.77539062 20.80664062 C9.85219313 27.12216929 7.52328765 30.60395306 3.1875 35.1875 C-0.70460708 37.52276425 -4.11173643 38.06111396 -8.625 37.875 C-14.52985417 36.20195799 -17.21278003 33.74959996 -20.625 28.875 C-23.7057665 22.46571306 -23.74397069 15.11412569 -21.4375 8.4375 C-15.57231429 0.14534089 -10.08583193 -3.13008577 0 0 Z " fill="#F6F7F9" transform="translate(815.625,493.125)"/>
<path d="M0 0 C5.26594344 1.85856827 7.79395768 4.60314196 11 9 C13.19745934 15.59237801 13.29500228 24.26313021 10.3125 30.625 C7.75856532 34.85438829 4.70518344 37.43160552 0 39 C-4.66507623 39.3823833 -7.04127641 39.47936179 -11.25 37.375 C-15.80630868 33.44000614 -18.73082071 29.2257387 -19.23828125 23.14453125 C-19.39231916 16.22903981 -19.32064655 10.6404582 -15 5 C-10.1598637 0.50558772 -6.57640416 -0.66378659 0 0 Z " fill="#F6F8F9" transform="translate(972,492)"/>
<path d="M0 0 C7.26 0 14.52 0 22 0 C22 29.04 22 58.08 22 88 C16.39 88 10.78 88 5 88 C5 69.19 5 50.38 5 31 C5.33 31 5.66 31 6 31 C6 49.15 6 67.3 6 86 C10.62 86 15.24 86 20 86 C20 58.28 20 30.56 20 2 C13.4 2 6.8 2 0 2 C0 1.34 0 0.68 0 0 Z " fill="#0F4BAE" transform="translate(677,455)"/>
<path d="M0 0 C0.33 0 0.66 0 1 0 C2.15178984 8.67935803 2.1292233 17.33386786 2.09765625 26.0703125 C2.09578729 27.6030167 2.09436565 29.1357215 2.09336853 30.66842651 C2.08958097 34.66977639 2.07978354 38.671089 2.06866455 42.67242432 C2.05836883 46.76859025 2.05385356 50.86476231 2.04882812 54.9609375 C2.03815727 62.9739772 2.02059169 70.98697965 2 79 C6.29 79.33 10.58 79.66 15 80 C15 60.86 15 41.72 15 22 C17 24 17 24 17.24050903 26.44241333 C17.2338472 27.98129715 17.2338472 27.98129715 17.22705078 29.55126953 C17.22689972 30.71232208 17.22674866 31.87337463 17.22659302 33.0696106 C17.21627045 34.32796722 17.20594788 35.58632385 17.1953125 36.8828125 C17.1924826 38.16735321 17.18965271 39.45189392 17.18673706 40.77536011 C17.17909809 44.19162767 17.15944752 47.60772537 17.1373291 51.02392578 C17.11687624 54.50941673 17.10773655 57.9949351 17.09765625 61.48046875 C17.07620172 68.32038935 17.04101753 75.16016904 17 82 C11.39 82 5.78 82 0 82 C0 54.94 0 27.88 0 0 Z " fill="#033EA7" transform="translate(607,461)"/>
<path d="M0 0 C3.30718397 1.65686642 5.32215847 3.98323771 7.375 7.0625 C8 9 8 9 8 13 C-1.24 13 -10.48 13 -20 13 C-17 4 -17 4 -14.5 1.4375 C-9.58243745 -0.58221319 -5.23972007 -0.91091716 0 0 Z " fill="#F6F8F9" transform="translate(1179,492)"/>
<path d="M0 0 C2.9656657 1.52349554 5.10774028 3.25299797 7 6 C7.66 8.31 8.32 10.62 9 13 C-0.24 13 -9.48 13 -19 13 C-18.04812889 7.28877334 -17.77878972 5.88675514 -14 2 C-9.52564308 -0.70365397 -5.08589973 -0.88280594 0 0 Z " fill="#F7F8F9" transform="translate(744,492)"/>
<path d="M0 0 C5.28 0 10.56 0 16 0 C16 2.31 16 4.62 16 7 C15.67 7 15.34 7 15 7 C15 5.35 15 3.7 15 2 C10.71 2 6.42 2 2 2 C2 21.47 2 40.94 2 61 C6.29 61 10.58 61 15 61 C15 48.13 15 35.26 15 22 C15.33 22 15.66 22 16 22 C16 35.53 16 49.06 16 63 C10.72 63 5.44 63 0 63 C0 42.21 0 21.42 0 0 Z " fill="#033AA6" transform="translate(1077,480)"/>
<path d="M0 0 C5.28 0 10.56 0 16 0 C16 2.64 16 5.28 16 8 C15.67 8 15.34 8 15 8 C15 5.69 15 3.38 15 1 C10.71 1 6.42 1 2 1 C2 20.8 2 40.6 2 61 C6.29 61 10.58 61 15 61 C15 48.46 15 35.92 15 23 C15.33 23 15.66 23 16 23 C16 36.2 16 49.4 16 63 C10.72 63 5.44 63 0 63 C0 42.21 0 21.42 0 0 Z " fill="#124AAD" transform="translate(1009,480)"/>
<path d="M0 0 C0.33 0 0.66 0 1 0 C1 14.85 1 29.7 1 45 C-4.28 45 -9.56 45 -15 45 C-14.67 44.34 -14.34 43.68 -14 43 C-9.71 43 -5.42 43 -1 43 C-1.01160156 41.73929688 -1.02320313 40.47859375 -1.03515625 39.1796875 C-1.11591609 26.09028427 -0.71146283 13.06934504 0 0 Z " fill="#1053B2" transform="translate(1133,498)"/>
<path d="M0 0 C2.43401792 -0.09567357 4.8011351 -0.02803935 7.23242188 0.12011719 C8.493125 0.16072266 8.493125 0.16072266 9.77929688 0.20214844 C11.84810821 0.2726761 13.9155958 0.38029352 15.98242188 0.49511719 C15.65242187 2.47511719 15.32242188 4.45511719 14.98242188 6.49511719 C14.65242187 5.17511719 14.32242188 3.85511719 13.98242188 2.49511719 C8.70242188 2.49511719 3.42242188 2.49511719 -2.01757812 2.49511719 C-2.67757812 4.14511719 -3.33757813 5.79511719 -4.01757812 7.49511719 C-4.67757812 7.16511719 -5.33757813 6.83511719 -6.01757812 6.49511719 C-3.30200461 0.81031768 -3.30200461 0.81031768 0 0 Z " fill="#043AA5" transform="translate(913.017578125,515.5048828125)"/>
<path d="M0 0 C2 2 2 2 3 8 C-2.61 8 -8.22 8 -14 8 C-14.33 6.35 -14.66 4.7 -15 3 C-14.01 3.495 -14.01 3.495 -13 4 C-13 4.66 -13 5.32 -13 6 C-8.38 6 -3.76 6 1 6 C0.67 4.02 0.34 2.04 0 0 Z " fill="#1951B1" transform="translate(1269,494)"/>
<path d="M0 0 C3.3 0 6.6 0 10 0 C10 4.29 10 8.58 10 13 C7.36 12.67 4.72 12.34 2 12 C2 11.67 2 11.34 2 11 C3.98 11 5.96 11 8 11 C8 8.03 8 5.06 8 2 C7.05125 2.04125 6.1025 2.0825 5.125 2.125 C2 2 2 2 0 0 Z " fill="#2656B3" transform="translate(1304,530)"/>
<path d="M0 0 C0.66 0.33 1.32 0.66 2 1 C2.33 2.98 2.66 4.96 3 7 C-2.94 7 -8.88 7 -15 7 C-15 6.34 -15 5.68 -15 5 C-9.72 5 -4.44 5 1 5 C0.67 3.35 0.34 1.7 0 0 Z " fill="#013BA8" transform="translate(926,476)"/>
<path d="M0 0 C0.80244141 0.0515625 1.60488281 0.103125 2.43164062 0.15625 C3.68170898 0.25292969 3.68170898 0.25292969 4.95703125 0.3515625 C6.22450195 0.43664062 6.22450195 0.43664062 7.51757812 0.5234375 C9.60224342 0.66477074 11.68599991 0.819395 13.76953125 0.9765625 C13.76953125 1.3065625 13.76953125 1.6365625 13.76953125 1.9765625 C12.58875 2.03714844 11.40796875 2.09773438 10.19140625 2.16015625 C8.63410355 2.24458832 7.07681246 2.32923499 5.51953125 2.4140625 C4.74222656 2.45337891 3.96492187 2.49269531 3.1640625 2.53320312 C2.03291016 2.59604492 2.03291016 2.59604492 0.87890625 2.66015625 C-0.1579834 2.71514282 -0.1579834 2.71514282 -1.21582031 2.77124023 C-3.29675204 2.98331774 -5.21619297 3.42164927 -7.23046875 3.9765625 C-7.23046875 3.3165625 -7.23046875 2.6565625 -7.23046875 1.9765625 C-4.0556343 -0.1399938 -3.5634787 -0.25272899 0 0 Z " fill="#B3CBE6" transform="translate(884.23046875,452.0234375)"/>
<path d="M0 0 C0.33 0.66 0.66 1.32 1 2 C-2.33562767 6.51290803 -4.33289301 8.68206814 -10 10 C-10 9.34 -10 8.68 -10 8 C-9.34 8 -8.68 8 -8 8 C-7.67 7.01 -7.34 6.02 -7 5 C-6.01 5 -5.02 5 -4 5 C-1.79857668 2.5609294 -1.79857668 2.5609294 0 0 Z " fill="#083DA6" transform="translate(553,543)"/>
<path d="M0 0 C0.99 0 1.98 0 3 0 C3 0.66 3 1.32 3 2 C4.0725 1.95875 5.145 1.9175 6.25 1.875 C9.77723487 1.9925745 11.061073 2.34847907 14 4 C12.41705218 4.05437607 10.83355744 4.09296271 9.25 4.125 C8.36828125 4.14820313 7.4865625 4.17140625 6.578125 4.1953125 C3.8864142 3.99139502 2.30095026 3.36551721 0 2 C0 1.34 0 0.68 0 0 Z " fill="#0A3FA9" transform="translate(416,524)"/>
<path d="M0 0 C0.66 0.33 1.32 0.66 2 1 C-1.35629254 4.70958649 -5.53909402 6.85215638 -10 9 C-6.99482576 5.13620455 -4.54918935 2.09016808 0 0 Z " fill="#0337A6" transform="translate(794,481)"/>
<path d="M0 0 C2.97 0 5.94 0 9 0 C8.01 1.485 8.01 1.485 7 3 C5.0546875 3.29296875 5.0546875 3.29296875 2.875 3.1875 C1.59625 3.125625 0.3175 3.06375 -1 3 C-0.67 2.01 -0.34 1.02 0 0 Z " fill="#CADEEE" transform="translate(802,476)"/>
<path d="M0 0 C1.99097846 2.98646769 2.94124926 5.59687262 4 9 C2.68 8.67 1.36 8.34 0 8 C0 5.36 0 2.72 0 0 Z " fill="#E9F0F8" transform="translate(624,483)"/>
<path d="M0 0 C1 2 1 2 0.125 5 C-1 8 -1 8 -2 10 C-2.66 10 -3.32 10 -4 10 C-3.52449439 8.51965236 -3.04448784 7.04074979 -2.5625 5.5625 C-2.29566406 4.73878906 -2.02882813 3.91507812 -1.75390625 3.06640625 C-1 1 -1 1 0 0 Z " fill="#1447AB" transform="translate(782,492)"/>
</svg>
